<?xml version="1.0" encoding="UTF-8"?>
<svg xmlns="http://www.w3.org/2000/svg" xmlns:xlink="http://www.w3.org/1999/xlink" width="512px" height="512px" viewBox="0 0 512 512" version="1.1">
<g id="surface1">
<path style=" stroke:none;fill-rule:nonzero;fill:rgb(0%,0%,0%);fill-opacity:1;" d="M 130.65625 128.613281 L 125.75 132.5 L 125.136719 254.363281 L 124.726562 376.230469 L 129.839844 381.34375 L 134.953125 386.453125 L 256.410156 386.042969 C 370.097656 385.429688 378.273438 385.226562 381.75 381.75 C 385.226562 378.273438 385.429688 370.097656 386.042969 256.410156 L 386.453125 134.953125 L 381.546875 129.839844 L 376.433594 124.726562 L 256 124.726562 C 140.269531 124.726562 135.15625 124.933594 130.65625 128.613281 Z M 377.046875 134.132812 C 379.910156 136.996094 380.320312 150.695312 380.320312 255.589844 C 380.320312 360.484375 379.910156 374.183594 377.046875 377.046875 C 374.183594 379.910156 360.484375 380.320312 255.589844 380.320312 C 150.695312 380.320312 136.996094 379.910156 134.132812 377.046875 C 131.273438 374.183594 130.863281 360.484375 130.863281 255.589844 C 130.863281 150.695312 131.273438 136.996094 134.132812 134.132812 C 136.996094 131.273438 150.695312 130.863281 255.589844 130.863281 C 360.484375 130.863281 374.183594 131.273438 377.046875 134.132812 Z M 377.046875 134.132812 "/>
<path style=" stroke:none;fill-rule:nonzero;fill:rgb(0%,0%,0%);fill-opacity:1;" d="M 215.921875 138.429688 C 215.308594 139.042969 214.695312 156.625 214.695312 177.074219 L 214.695312 214.695312 L 176.460938 215.105469 C 152.535156 215.515625 138.019531 216.535156 138.019531 217.761719 C 138.019531 218.992188 152.535156 220.011719 176.460938 220.421875 L 214.695312 220.832031 L 214.695312 290.351562 L 176.867188 290.761719 C 126.160156 291.578125 126.160156 295.257812 176.867188 296.078125 L 214.695312 296.484375 L 215.105469 334.3125 C 215.921875 385.023438 219.605469 385.023438 220.421875 334.3125 L 220.832031 296.484375 L 290.351562 296.484375 L 290.761719 334.3125 C 291.578125 385.023438 295.257812 385.023438 296.078125 334.3125 L 296.484375 296.484375 L 334.3125 296.078125 C 385.023438 295.257812 385.023438 291.578125 334.3125 290.761719 L 296.484375 290.351562 L 296.484375 220.832031 L 334.925781 220.421875 C 386.25 219.605469 386.25 215.921875 334.925781 215.105469 L 296.484375 214.695312 L 296.078125 176.253906 C 295.257812 124.933594 291.578125 124.933594 290.761719 176.253906 L 290.351562 214.695312 L 220.832031 214.695312 L 220.832031 177.074219 C 220.832031 142.722656 219.808594 134.542969 215.921875 138.429688 Z M 290.351562 255.589844 L 290.351562 290.351562 L 220.832031 290.351562 L 220.832031 220.832031 L 290.351562 220.832031 Z M 290.351562 255.589844 "/>
<path style=" stroke:none;fill-rule:nonzero;fill:rgb(0%,0%,0%);fill-opacity:1;" d="M 243.527344 230.441406 C 218.171875 243.730469 224.511719 279.921875 252.726562 283.398438 C 267.65625 285.238281 281.558594 273.992188 283.398438 258.453125 C 286.058594 237.1875 262.339844 220.421875 243.527344 230.441406 Z M 272.359375 241.074219 C 280.742188 250.480469 280.332031 261.929688 271.132812 271.132812 C 257.023438 285.238281 235.960938 277.46875 233.710938 257.023438 C 232.691406 248.230469 233.097656 247.003906 240.050781 240.050781 C 247.003906 233.097656 248.230469 232.691406 257.023438 233.710938 C 264.585938 234.53125 268.0625 236.167969 272.359375 241.074219 Z M 272.359375 241.074219 "/>
<path style=" stroke:none;fill-rule:nonzero;fill:rgb(0%,0%,0%);fill-opacity:1;" d="M 240.253906 155.398438 C 216.535156 170.9375 227.167969 206.515625 255.589844 206.515625 C 267.042969 206.515625 276.242188 200.996094 280.742188 191.589844 C 285.035156 182.59375 285.035156 175.234375 280.945312 166.441406 C 274.199219 152.332031 253.546875 146.605469 240.253906 155.398438 Z M 267.449219 160.101562 C 277.0625 164.804688 280.742188 179.117188 275.015625 189.957031 C 272.359375 195.273438 261.316406 202.429688 255.589844 202.429688 C 249.867188 202.429688 238.824219 195.273438 236.167969 189.957031 C 228.601562 175.4375 236.371094 159.898438 252.523438 156.832031 C 257.226562 156.011719 260.703125 156.832031 267.449219 160.101562 Z M 267.449219 160.101562 "/>
<path style=" stroke:none;fill-rule:nonzero;fill:rgb(0%,0%,0%);fill-opacity:1;" d="M 311.207031 158.058594 C 303.234375 166.238281 303.234375 167.667969 309.777344 173.800781 L 314.886719 178.710938 L 309.777344 184.027344 C 306.914062 186.886719 304.664062 190.363281 304.664062 191.386719 C 304.664062 193.839844 317.34375 206.515625 320 206.515625 C 321.023438 206.515625 324.292969 204.269531 327.15625 201.40625 L 332.472656 196.292969 L 337.378906 201.40625 C 340.039062 204.269531 343.308594 206.515625 344.535156 206.515625 C 347.195312 206.515625 359.871094 193.839844 359.871094 191.183594 C 359.871094 190.160156 357.621094 186.886719 354.761719 184.027344 L 349.648438 178.710938 L 354.761719 173.800781 C 361.507812 167.464844 361.304688 165.621094 353.125 157.851562 C 344.945312 149.878906 343.515625 149.878906 337.378906 156.421875 L 332.472656 161.535156 L 327.15625 156.421875 C 320.203125 149.878906 318.976562 149.878906 311.207031 158.058594 Z M 338.402344 163.578125 L 344.332031 157.445312 L 349.035156 161.941406 L 353.738281 166.441406 L 347.605469 172.78125 L 341.46875 179.117188 L 347.605469 185.046875 L 353.738281 190.976562 L 349.238281 195.679688 L 344.742188 200.382812 L 338.402344 194.25 L 332.0625 188.113281 L 326.132812 194.25 L 320.203125 200.382812 L 315.5 195.886719 L 310.796875 191.386719 L 316.933594 185.046875 L 323.066406 178.710938 L 316.933594 172.78125 L 310.796875 166.851562 L 319.796875 157.445312 L 326.132812 163.578125 L 332.472656 169.710938 Z M 338.402344 163.578125 "/>
<path style=" stroke:none;fill-rule:nonzero;fill:rgb(0%,0%,0%);fill-opacity:1;" d="M 157.851562 233.710938 C 154.171875 237.394531 151.308594 241.277344 151.308594 242.300781 C 151.308594 243.324219 153.761719 246.796875 156.832031 249.867188 L 162.351562 255.589844 L 156.832031 261.316406 C 153.761719 264.382812 151.308594 268.0625 151.308594 269.085938 C 151.308594 270.3125 154.582031 274.199219 158.464844 278.082031 L 165.621094 285.035156 L 171.347656 279.515625 C 174.414062 276.449219 177.890625 273.992188 178.914062 273.992188 C 179.9375 273.992188 183.414062 276.449219 186.480469 279.515625 L 192.203125 285.035156 L 199.359375 278.082031 C 203.246094 274.199219 206.515625 270.3125 206.515625 269.085938 C 206.515625 268.0625 204.0625 264.382812 200.996094 261.316406 L 195.476562 255.589844 L 200.996094 249.867188 C 204.0625 246.796875 206.515625 243.117188 206.515625 242.097656 C 206.515625 240.867188 203.246094 236.984375 199.359375 233.097656 L 192.203125 226.148438 L 186.480469 231.667969 C 179.324219 238.414062 177.890625 238.414062 171.757812 232.078125 C 169.097656 229.214844 166.441406 226.964844 165.621094 226.964844 C 165.007812 226.964844 161.535156 230.03125 157.851562 233.710938 Z M 171.757812 240.253906 C 177.890625 246.59375 179.324219 246.59375 186.480469 239.847656 C 192 234.53125 192.203125 234.53125 196.292969 238.210938 L 200.382812 242.097656 L 187.296875 255.589844 L 193.839844 262.339844 L 200.382812 269.085938 L 196.292969 272.972656 C 192.203125 276.652344 192 276.652344 186.480469 271.335938 C 183.207031 268.269531 179.9375 265.816406 178.914062 265.816406 C 177.890625 265.816406 174.621094 268.269531 171.347656 271.335938 C 165.828125 276.652344 165.621094 276.652344 161.535156 272.972656 L 157.445312 269.085938 L 163.988281 262.339844 L 170.53125 255.589844 L 163.988281 248.84375 C 157.851562 242.503906 157.648438 241.890625 160.921875 238.621094 C 165.417969 234.121094 166.03125 234.121094 171.757812 240.253906 Z M 171.757812 240.253906 "/>
<path style=" stroke:none;fill-rule:nonzero;fill:rgb(0%,0%,0%);fill-opacity:1;" d="M 319.183594 230.441406 C 309.980469 234.9375 304.664062 244.140625 304.664062 255.589844 C 304.664062 267.042969 310.183594 276.242188 319.589844 280.742188 C 339.21875 290.148438 359.871094 277.0625 359.871094 255.386719 C 359.871094 233.710938 338.8125 220.832031 319.183594 230.441406 Z M 343.515625 236.574219 C 358.238281 245.164062 358.238281 266.019531 343.515625 274.605469 C 324.703125 285.851562 302.621094 266.019531 312.027344 246.390625 C 317.75 233.917969 331.859375 229.621094 343.515625 236.574219 Z M 343.515625 236.574219 "/>
<path style=" stroke:none;fill-rule:nonzero;fill:rgb(0%,0%,0%);fill-opacity:1;" d="M 311.207031 311.414062 C 303.234375 319.589844 303.234375 321.023438 309.777344 327.15625 L 314.886719 332.0625 L 309.777344 337.378906 C 306.914062 340.242188 304.664062 343.71875 304.664062 344.742188 C 304.664062 347.195312 317.34375 359.871094 320 359.871094 C 321.023438 359.871094 324.292969 357.621094 327.15625 354.761719 L 332.472656 349.648438 L 337.378906 354.761719 C 340.039062 357.621094 343.308594 359.871094 344.535156 359.871094 C 347.195312 359.871094 359.871094 347.195312 359.871094 344.535156 C 359.871094 343.515625 357.621094 340.242188 354.761719 337.378906 L 349.648438 332.0625 L 354.761719 327.15625 C 361.507812 320.816406 361.304688 318.976562 353.125 311.207031 C 344.945312 303.234375 343.515625 303.234375 337.378906 309.777344 L 332.472656 314.886719 L 327.15625 309.777344 C 320.203125 303.234375 318.976562 303.234375 311.207031 311.414062 Z M 338.402344 316.933594 L 344.332031 310.796875 L 353.738281 319.796875 L 347.605469 326.132812 L 341.46875 332.472656 L 347.605469 338.402344 L 353.738281 344.332031 L 349.238281 349.035156 L 344.742188 353.738281 L 338.402344 347.605469 L 332.0625 341.46875 L 326.132812 347.605469 L 320.203125 353.738281 L 315.5 349.238281 L 310.796875 344.742188 L 316.933594 338.402344 L 323.066406 332.0625 L 316.933594 326.132812 L 310.796875 320.203125 L 319.796875 310.796875 L 326.132812 316.933594 L 332.472656 323.066406 Z M 338.402344 316.933594 "/>
</g>
</svg>
